<svg xmlns="http://www.w3.org/2000/svg" id="_&#x56FE;&#x5C42;_1" data-name="&#x56FE;&#x5C42; 1" viewBox="0 0 100 100"><defs><style> .cls-1 { stroke-width: .94px; } .cls-1, .cls-2, .cls-3 { fill: none; stroke: #040000; stroke-miterlimit: 10; } .cls-2 { stroke-width: .87px; } .cls-3 { stroke-width: 1.06px; } .cls-4 { fill: #040000; } </style></defs><path class="cls-2" d="M41.13,18.89h0c4.34,0,7.86,3.52,7.86,7.86v54.39h-15.73V26.75c0-4.34,3.52-7.86,7.86-7.86Z" transform="translate(-8.88 91.15) rotate(-90)"></path><rect class="cls-3" x="79.87" y="46.09" width="12.41" height="7.85" transform="translate(36.06 136.09) rotate(-90)"></rect><line class="cls-3" x1="85.04" y1="56.22" x2="85.04" y2="43.81"></line><line class="cls-3" x1="86.54" y1="56.22" x2="86.54" y2="43.81"></line><line class="cls-3" x1="88.04" y1="56.22" x2="88.04" y2="43.81"></line><path class="cls-4" d="M57.21,54.33h14.71v-8.64h-14.71v8.64ZM70.21,50.02c0,.89-.73,1.62-1.62,1.62s-1.62-.72-1.62-1.62.73-1.62,1.62-1.62,1.62.72,1.62,1.62Z"></path><rect class="cls-1" x="56.86" y="36.71" width="4.19" height="26.61" transform="translate(8.94 108.97) rotate(-90)"></rect><line class="cls-3" x1="45.65" y1="57.83" x2="45.65" y2="42.2"></line><line class="cls-3" x1="45.06" y1="57.83" x2="45.06" y2="42.2"></line><rect class="cls-4" x="16.72" y="35.43" width="15.73" height="29.17" rx="7.55" ry="7.55" transform="translate(-25.43 74.6) rotate(-90)"></rect><rect class="cls-4" x="69.21" y="45.05" width="16.59" height="9.89" transform="translate(27.51 127.51) rotate(-90)"></rect></svg>